# xmcd CD database file
# Copyright (C) 1993-1996 Ti Kan
#
# Track frame offsets:
# 150
# 17262
# 33817
# 48182
# 64842
# 76795
# 95097
# 109510
# 122885
# 140775
# 158482
# 173660
# 187615
# 203255
# 219970
# 230292
#
# Disc length: 3356 seconds
#
# Revision: 0
# Processed by: cddbd v1.4b41PL1 Copyright (c) Steve Scherf et al.
# Submitted via: inCDius 1.1b2
#
DISCID=b60d1a10
DTITLE=Arthur "Big Boy" Crudup - Arthur "Big Boy" Crudup Meets The Blues Bassis
DTITLE=ts
DYEAR=1900
DGENRE=
TTITLE0=Peaches Is Her Name
TTITLE1=Did You Get That Letter
TTITLE2=Got No One To Love Me
TTITLE3=This War Is Awful
TTITLE4=Ramblin' On My Mind
TTITLE5=I Lost All I Had
TTITLE6=I Got To Find My Baby
TTITLE7=So Glad You're Mine
TTITLE8=Strictly A Woman
TTITLE9=Any Old Way You Do
TTITLE10=You're A Good Little Girl
TTITLE11=Look On Yonder's Wall
TTITLE12=Make An Arrangement For Me
TTITLE13=I'm In The Mood For You
TTITLE14=Talk
TTITLE15=Crazy House Blues
EXTD=
EXTT0=
EXTT1=
EXTT2=
EXTT3=
EXTT4=
EXTT5=
EXTT6=
EXTT7=
EXTT8=
EXTT9=
EXTT10=
EXTT11=
EXTT12=
EXTT13=
EXTT14=
EXTT15=
PLAYORDER=
